<mxfile host="65bd71144e">
    <diagram id="-Afq3NjiMw3fcOSIW-k-" name="Page-1">
        <mxGraphModel dx="901" dy="639" grid="1" gridSize="10" guides="1" tooltips="1" connect="1" arrows="1" fold="1" page="1" pageScale="1" pageWidth="2339" pageHeight="3300" math="0" shadow="0">
            <root>
                <mxCell id="0"/>
                <mxCell id="1" parent="0"/>
                <mxCell id="2" value="User" style="html=1;" parent="1" vertex="1">
                    <mxGeometry x="300" y="380" width="100" height="50" as="geometry"/>
                </mxCell>
                <mxCell id="3" value="Product" style="html=1;" parent="1" vertex="1">
                    <mxGeometry x="780" y="500" width="80" height="40" as="geometry"/>
                </mxCell>
                <mxCell id="4" value="Order" style="html=1;" parent="1" vertex="1">
                    <mxGeometry x="500" y="460" width="80" height="40" as="geometry"/>
                </mxCell>
                <mxCell id="5" value="Group" style="html=1;" parent="1" vertex="1">
                    <mxGeometry x="300" y="220" width="80" height="40" as="geometry"/>
                </mxCell>
                <mxCell id="6" value="Message" style="html=1;" parent="1" vertex="1">
                    <mxGeometry x="420" y="260" width="80" height="40" as="geometry"/>
                </mxCell>
                <mxCell id="7" value="" style="html=1;verticalAlign=bottom;endArrow=block;entryX=0.25;entryY=1;entryDx=0;entryDy=0;" parent="1" target="5" edge="1">
                    <mxGeometry width="80" relative="1" as="geometry">
                        <mxPoint x="320" y="380" as="sourcePoint"/>
                        <mxPoint x="800" y="360" as="targetPoint"/>
                    </mxGeometry>
                </mxCell>
                <mxCell id="8" value="&lt;span style=&quot;color: rgb(0, 0, 0); font-family: Helvetica; font-size: 11px; font-style: normal; font-variant-ligatures: normal; font-variant-caps: normal; font-weight: 400; letter-spacing: normal; orphans: 2; text-align: center; text-indent: 0px; text-transform: none; widows: 2; word-spacing: 0px; -webkit-text-stroke-width: 0px; background-color: rgb(255, 255, 255); text-decoration-thickness: initial; text-decoration-style: initial; text-decoration-color: initial; float: none; display: inline !important;&quot;&gt;belongs to&lt;/span&gt;" style="text;whiteSpace=wrap;html=1;" parent="1" vertex="1">
                    <mxGeometry x="270" y="320" width="60" height="30" as="geometry"/>
                </mxCell>
                <mxCell id="9" value="&lt;span style=&quot;color: rgb(0, 0, 0); font-family: Helvetica; font-size: 11px; font-style: normal; font-variant-ligatures: normal; font-variant-caps: normal; font-weight: 400; letter-spacing: normal; orphans: 2; text-align: center; text-indent: 0px; text-transform: none; widows: 2; word-spacing: 0px; -webkit-text-stroke-width: 0px; background-color: rgb(255, 255, 255); text-decoration-thickness: initial; text-decoration-style: initial; text-decoration-color: initial; float: none; display: inline !important;&quot;&gt;creates&lt;/span&gt;" style="text;whiteSpace=wrap;html=1;" parent="1" vertex="1">
                    <mxGeometry x="360" y="300" width="50" height="30" as="geometry"/>
                </mxCell>
                <mxCell id="11" value="" style="html=1;verticalAlign=bottom;endArrow=block;exitX=0.25;exitY=0;exitDx=0;exitDy=0;entryX=0.25;entryY=1;entryDx=0;entryDy=0;" parent="1" edge="1">
                    <mxGeometry width="80" relative="1" as="geometry">
                        <mxPoint x="360" y="380" as="sourcePoint"/>
                        <mxPoint x="360" y="260" as="targetPoint"/>
                    </mxGeometry>
                </mxCell>
                <mxCell id="12" value="Chat" style="html=1;" parent="1" vertex="1">
                    <mxGeometry x="420" y="180" width="80" height="40" as="geometry"/>
                </mxCell>
                <mxCell id="13" value="" style="endArrow=classic;html=1;exitX=0.5;exitY=0;exitDx=0;exitDy=0;entryX=0;entryY=0.5;entryDx=0;entryDy=0;rounded=0;" parent="1" source="5" target="12" edge="1">
                    <mxGeometry width="50" height="50" relative="1" as="geometry">
                        <mxPoint x="730" y="390" as="sourcePoint"/>
                        <mxPoint x="780" y="340" as="targetPoint"/>
                        <Array as="points">
                            <mxPoint x="340" y="200"/>
                        </Array>
                    </mxGeometry>
                </mxCell>
                <mxCell id="15" value="&lt;span style=&quot;color: rgb(0, 0, 0); font-family: Helvetica; font-size: 11px; font-style: normal; font-variant-ligatures: normal; font-variant-caps: normal; font-weight: 400; letter-spacing: normal; orphans: 2; text-align: center; text-indent: 0px; text-transform: none; widows: 2; word-spacing: 0px; -webkit-text-stroke-width: 0px; background-color: rgb(255, 255, 255); text-decoration-thickness: initial; text-decoration-style: initial; text-decoration-color: initial; float: none; display: inline !important;&quot;&gt;has&lt;/span&gt;" style="text;whiteSpace=wrap;html=1;" parent="1" vertex="1">
                    <mxGeometry x="360" y="170" width="30" height="30" as="geometry"/>
                </mxCell>
                <mxCell id="18" value="&lt;span style=&quot;color: rgb(0, 0, 0); font-family: Helvetica; font-size: 11px; font-style: normal; font-variant-ligatures: normal; font-variant-caps: normal; font-weight: 400; letter-spacing: normal; orphans: 2; text-align: center; text-indent: 0px; text-transform: none; widows: 2; word-spacing: 0px; -webkit-text-stroke-width: 0px; background-color: rgb(255, 255, 255); text-decoration-thickness: initial; text-decoration-style: initial; text-decoration-color: initial; float: none; display: inline !important;&quot;&gt;sends /&lt;br&gt;receives&lt;br&gt;&lt;/span&gt;" style="text;whiteSpace=wrap;html=1;" parent="1" vertex="1">
                    <mxGeometry x="420" y="350" width="40" height="30" as="geometry"/>
                </mxCell>
                <mxCell id="20" value="" style="endArrow=classic;html=1;rounded=0;exitX=0.25;exitY=0;exitDx=0;exitDy=0;entryX=0.25;entryY=1;entryDx=0;entryDy=0;" parent="1" source="6" target="12" edge="1">
                    <mxGeometry width="50" height="50" relative="1" as="geometry">
                        <mxPoint x="730" y="390" as="sourcePoint"/>
                        <mxPoint x="780" y="340" as="targetPoint"/>
                    </mxGeometry>
                </mxCell>
                <mxCell id="21" value="" style="endArrow=classic;html=1;rounded=0;exitX=0.75;exitY=1;exitDx=0;exitDy=0;entryX=0.75;entryY=0;entryDx=0;entryDy=0;" parent="1" source="12" target="6" edge="1">
                    <mxGeometry width="50" height="50" relative="1" as="geometry">
                        <mxPoint x="450" y="270" as="sourcePoint"/>
                        <mxPoint x="450" y="230" as="targetPoint"/>
                    </mxGeometry>
                </mxCell>
                <mxCell id="22" value="&lt;span style=&quot;color: rgb(0, 0, 0); font-family: Helvetica; font-size: 11px; font-style: normal; font-variant-ligatures: normal; font-variant-caps: normal; font-weight: 400; letter-spacing: normal; orphans: 2; text-align: center; text-indent: 0px; text-transform: none; widows: 2; word-spacing: 0px; -webkit-text-stroke-width: 0px; background-color: rgb(255, 255, 255); text-decoration-thickness: initial; text-decoration-style: initial; text-decoration-color: initial; float: none; display: inline !important;&quot;&gt;to&lt;/span&gt;" style="text;whiteSpace=wrap;html=1;" parent="1" vertex="1">
                    <mxGeometry x="405" y="230" width="30" height="30" as="geometry"/>
                </mxCell>
                <mxCell id="25" value="&lt;span style=&quot;color: rgb(0, 0, 0); font-family: Helvetica; font-size: 11px; font-style: normal; font-variant-ligatures: normal; font-variant-caps: normal; font-weight: 400; letter-spacing: normal; orphans: 2; text-align: center; text-indent: 0px; text-transform: none; widows: 2; word-spacing: 0px; -webkit-text-stroke-width: 0px; background-color: rgb(255, 255, 255); text-decoration-thickness: initial; text-decoration-style: initial; text-decoration-color: initial; float: none; display: inline !important;&quot;&gt;from&lt;/span&gt;" style="text;whiteSpace=wrap;html=1;" parent="1" vertex="1">
                    <mxGeometry x="490" y="225" width="30" height="30" as="geometry"/>
                </mxCell>
                <mxCell id="26" value="Achievement" style="html=1;" parent="1" vertex="1">
                    <mxGeometry x="230" y="500" width="80" height="40" as="geometry"/>
                </mxCell>
                <mxCell id="29" value="&lt;span style=&quot;color: rgb(0, 0, 0); font-family: Helvetica; font-size: 11px; font-style: normal; font-variant-ligatures: normal; font-variant-caps: normal; font-weight: 400; letter-spacing: normal; orphans: 2; text-align: center; text-indent: 0px; text-transform: none; widows: 2; word-spacing: 0px; -webkit-text-stroke-width: 0px; background-color: rgb(255, 255, 255); text-decoration-thickness: initial; text-decoration-style: initial; text-decoration-color: initial; float: none; display: inline !important;&quot;&gt;makes&lt;/span&gt;" style="text;whiteSpace=wrap;html=1;" parent="1" vertex="1">
                    <mxGeometry x="280" y="470" width="40" height="30" as="geometry"/>
                </mxCell>
                <mxCell id="31" value="&lt;span style=&quot;color: rgb(0, 0, 0); font-family: Helvetica; font-size: 11px; font-style: normal; font-variant-ligatures: normal; font-variant-caps: normal; font-weight: 400; letter-spacing: normal; orphans: 2; text-align: center; text-indent: 0px; text-transform: none; widows: 2; word-spacing: 0px; -webkit-text-stroke-width: 0px; background-color: rgb(255, 255, 255); text-decoration-thickness: initial; text-decoration-style: initial; text-decoration-color: initial; float: none; display: inline !important;&quot;&gt;shares&lt;/span&gt;" style="text;whiteSpace=wrap;html=1;" parent="1" vertex="1">
                    <mxGeometry x="265" y="430" width="40" height="30" as="geometry"/>
                </mxCell>
                <mxCell id="32" value="Social&lt;br&gt;Networks" style="html=1;" parent="1" vertex="1">
                    <mxGeometry x="230" y="620" width="80" height="40" as="geometry"/>
                </mxCell>
                <mxCell id="33" value="" style="endArrow=classic;html=1;rounded=0;exitX=0.5;exitY=1;exitDx=0;exitDy=0;entryX=0.5;entryY=0;entryDx=0;entryDy=0;" parent="1" source="26" target="32" edge="1">
                    <mxGeometry width="50" height="50" relative="1" as="geometry">
                        <mxPoint x="730" y="500" as="sourcePoint"/>
                        <mxPoint x="780" y="450" as="targetPoint"/>
                    </mxGeometry>
                </mxCell>
                <mxCell id="34" value="&lt;span style=&quot;color: rgb(0, 0, 0); font-family: Helvetica; font-size: 11px; font-style: normal; font-variant-ligatures: normal; font-variant-caps: normal; font-weight: 400; letter-spacing: normal; orphans: 2; text-align: center; text-indent: 0px; text-transform: none; widows: 2; word-spacing: 0px; -webkit-text-stroke-width: 0px; background-color: rgb(255, 255, 255); text-decoration-thickness: initial; text-decoration-style: initial; text-decoration-color: initial; float: none; display: inline !important;&quot;&gt;on&lt;/span&gt;" style="text;whiteSpace=wrap;html=1;" parent="1" vertex="1">
                    <mxGeometry x="280" y="570" width="20" height="20" as="geometry"/>
                </mxCell>
                <mxCell id="38" value="" style="endArrow=classic;html=1;rounded=0;entryX=1;entryY=0.5;entryDx=0;entryDy=0;exitX=0.25;exitY=1;exitDx=0;exitDy=0;" parent="1" source="2" target="26" edge="1">
                    <mxGeometry width="50" height="50" relative="1" as="geometry">
                        <mxPoint x="340" y="420" as="sourcePoint"/>
                        <mxPoint x="770" y="450" as="targetPoint"/>
                        <Array as="points">
                            <mxPoint x="325" y="520"/>
                        </Array>
                    </mxGeometry>
                </mxCell>
                <mxCell id="40" value="" style="endArrow=classic;html=1;rounded=0;entryX=0.5;entryY=0;entryDx=0;entryDy=0;" parent="1" target="26" edge="1">
                    <mxGeometry width="50" height="50" relative="1" as="geometry">
                        <mxPoint x="310" y="430" as="sourcePoint"/>
                        <mxPoint x="770" y="450" as="targetPoint"/>
                        <Array as="points">
                            <mxPoint x="310" y="460"/>
                            <mxPoint x="270" y="460"/>
                        </Array>
                    </mxGeometry>
                </mxCell>
                <mxCell id="41" value="" style="endArrow=classic;html=1;rounded=0;exitX=0.25;exitY=0;exitDx=0;exitDy=0;entryX=0;entryY=0.5;entryDx=0;entryDy=0;" parent="1" source="26" target="5" edge="1">
                    <mxGeometry width="50" height="50" relative="1" as="geometry">
                        <mxPoint x="720" y="500" as="sourcePoint"/>
                        <mxPoint x="770" y="450" as="targetPoint"/>
                        <Array as="points">
                            <mxPoint x="250" y="240"/>
                        </Array>
                    </mxGeometry>
                </mxCell>
                <mxCell id="42" value="&lt;span style=&quot;color: rgb(0, 0, 0); font-family: Helvetica; font-size: 11px; font-style: normal; font-variant-ligatures: normal; font-variant-caps: normal; font-weight: 400; letter-spacing: normal; orphans: 2; text-align: center; text-indent: 0px; text-transform: none; widows: 2; word-spacing: 0px; -webkit-text-stroke-width: 0px; background-color: rgb(255, 255, 255); text-decoration-thickness: initial; text-decoration-style: initial; text-decoration-color: initial; float: none; display: inline !important;&quot;&gt;with&lt;/span&gt;" style="text;whiteSpace=wrap;html=1;" parent="1" vertex="1">
                    <mxGeometry x="265" y="210" width="30" height="20" as="geometry"/>
                </mxCell>
                <mxCell id="43" value="Training" style="html=1;" parent="1" vertex="1">
                    <mxGeometry x="410" y="630" width="80" height="40" as="geometry"/>
                </mxCell>
                <mxCell id="44" value="Training&lt;br&gt;Plan" style="html=1;" parent="1" vertex="1">
                    <mxGeometry x="570" y="610" width="80" height="40" as="geometry"/>
                </mxCell>
                <mxCell id="45" value="Athletic&lt;br&gt;Performance&amp;nbsp;&lt;br&gt;Metric" style="html=1;" parent="1" vertex="1">
                    <mxGeometry x="420" y="700" width="80" height="40" as="geometry"/>
                </mxCell>
                <mxCell id="46" value="Athletic&lt;br&gt;Performance&amp;nbsp;&lt;br&gt;Metric Type" style="html=1;" parent="1" vertex="1">
                    <mxGeometry x="420" y="780" width="80" height="40" as="geometry"/>
                </mxCell>
                <mxCell id="47" value="Athletic&lt;br&gt;Performance&amp;nbsp;&lt;br&gt;Metric History" style="html=1;" parent="1" vertex="1">
                    <mxGeometry x="300" y="700" width="80" height="40" as="geometry"/>
                </mxCell>
                <mxCell id="48" value="" style="endArrow=classic;html=1;rounded=0;exitX=0.57;exitY=1.02;exitDx=0;exitDy=0;entryX=0;entryY=0.5;entryDx=0;entryDy=0;exitPerimeter=0;" parent="1" source="2" target="43" edge="1">
                    <mxGeometry width="50" height="50" relative="1" as="geometry">
                        <mxPoint x="720" y="470" as="sourcePoint"/>
                        <mxPoint x="770" y="420" as="targetPoint"/>
                        <Array as="points">
                            <mxPoint x="357" y="650"/>
                        </Array>
                    </mxGeometry>
                </mxCell>
                <mxCell id="52" value="&lt;span style=&quot;color: rgb(0, 0, 0); font-family: Helvetica; font-size: 11px; font-style: normal; font-variant-ligatures: normal; font-variant-caps: normal; font-weight: 400; letter-spacing: normal; orphans: 2; text-align: center; text-indent: 0px; text-transform: none; widows: 2; word-spacing: 0px; -webkit-text-stroke-width: 0px; background-color: rgb(255, 255, 255); text-decoration-thickness: initial; text-decoration-style: initial; text-decoration-color: initial; float: none; display: inline !important;&quot;&gt;does&lt;/span&gt;" style="text;whiteSpace=wrap;html=1;" parent="1" vertex="1">
                    <mxGeometry x="360" y="600" width="30" height="30" as="geometry"/>
                </mxCell>
                <mxCell id="53" value="" style="endArrow=classic;html=1;rounded=0;exitX=1;exitY=0.25;exitDx=0;exitDy=0;" parent="1" source="43" edge="1">
                    <mxGeometry width="50" height="50" relative="1" as="geometry">
                        <mxPoint x="500" y="640" as="sourcePoint"/>
                        <mxPoint x="570" y="640" as="targetPoint"/>
                    </mxGeometry>
                </mxCell>
                <mxCell id="54" value="&lt;span style=&quot;color: rgb(0, 0, 0); font-family: Helvetica; font-size: 11px; font-style: normal; font-variant-ligatures: normal; font-variant-caps: normal; font-weight: 400; letter-spacing: normal; orphans: 2; text-align: center; text-indent: 0px; text-transform: none; widows: 2; word-spacing: 0px; -webkit-text-stroke-width: 0px; background-color: rgb(255, 255, 255); text-decoration-thickness: initial; text-decoration-style: initial; text-decoration-color: initial; float: none; display: inline !important;&quot;&gt;according to&lt;/span&gt;" style="text;whiteSpace=wrap;html=1;" parent="1" vertex="1">
                    <mxGeometry x="495" y="635" width="70" height="30" as="geometry"/>
                </mxCell>
                <mxCell id="55" value="Sensor" style="html=1;" parent="1" vertex="1">
                    <mxGeometry x="580" y="740" width="80" height="40" as="geometry"/>
                </mxCell>
                <mxCell id="57" value="" style="endArrow=classic;html=1;rounded=0;exitX=0.41;exitY=1.02;exitDx=0;exitDy=0;exitPerimeter=0;" parent="1" source="2" target="47" edge="1">
                    <mxGeometry width="50" height="50" relative="1" as="geometry">
                        <mxPoint x="720" y="470" as="sourcePoint"/>
                        <mxPoint x="770" y="420" as="targetPoint"/>
                    </mxGeometry>
                </mxCell>
                <mxCell id="58" value="&lt;span style=&quot;color: rgb(0, 0, 0); font-family: Helvetica; font-size: 11px; font-style: normal; font-variant-ligatures: normal; font-variant-caps: normal; font-weight: 400; letter-spacing: normal; orphans: 2; text-align: center; text-indent: 0px; text-transform: none; widows: 2; word-spacing: 0px; -webkit-text-stroke-width: 0px; background-color: rgb(255, 255, 255); text-decoration-thickness: initial; text-decoration-style: initial; text-decoration-color: initial; float: none; display: inline !important;&quot;&gt;reads&lt;/span&gt;" style="text;whiteSpace=wrap;html=1;" parent="1" vertex="1">
                    <mxGeometry x="305" y="550" width="40" height="30" as="geometry"/>
                </mxCell>
                <mxCell id="59" value="" style="endArrow=classic;html=1;rounded=0;exitX=0;exitY=0.5;exitDx=0;exitDy=0;entryX=1;entryY=0.5;entryDx=0;entryDy=0;" parent="1" source="55" target="45" edge="1">
                    <mxGeometry width="50" height="50" relative="1" as="geometry">
                        <mxPoint x="720" y="590" as="sourcePoint"/>
                        <mxPoint x="770" y="540" as="targetPoint"/>
                        <Array as="points">
                            <mxPoint x="540" y="760"/>
                            <mxPoint x="540" y="720"/>
                        </Array>
                    </mxGeometry>
                </mxCell>
                <mxCell id="60" value="&lt;span style=&quot;color: rgb(0, 0, 0); font-family: Helvetica; font-size: 11px; font-style: normal; font-variant-ligatures: normal; font-variant-caps: normal; font-weight: 400; letter-spacing: normal; orphans: 2; text-align: center; text-indent: 0px; text-transform: none; widows: 2; word-spacing: 0px; -webkit-text-stroke-width: 0px; background-color: rgb(255, 255, 255); text-decoration-thickness: initial; text-decoration-style: initial; text-decoration-color: initial; float: none; display: inline !important;&quot;&gt;writes&lt;/span&gt;" style="text;whiteSpace=wrap;html=1;" parent="1" vertex="1">
                    <mxGeometry x="545" y="720" width="40" height="30" as="geometry"/>
                </mxCell>
                <mxCell id="61" value="" style="endArrow=classic;html=1;rounded=0;exitX=0;exitY=0.5;exitDx=0;exitDy=0;entryX=1;entryY=0.5;entryDx=0;entryDy=0;" parent="1" source="45" target="47" edge="1">
                    <mxGeometry width="50" height="50" relative="1" as="geometry">
                        <mxPoint x="720" y="590" as="sourcePoint"/>
                        <mxPoint x="770" y="540" as="targetPoint"/>
                    </mxGeometry>
                </mxCell>
                <mxCell id="62" value="&lt;span style=&quot;color: rgb(0, 0, 0); font-family: Helvetica; font-size: 11px; font-style: normal; font-variant-ligatures: normal; font-variant-caps: normal; font-weight: 400; letter-spacing: normal; orphans: 2; text-align: center; text-indent: 0px; text-transform: none; widows: 2; word-spacing: 0px; -webkit-text-stroke-width: 0px; background-color: rgb(255, 255, 255); text-decoration-thickness: initial; text-decoration-style: initial; text-decoration-color: initial; float: none; display: inline !important;&quot;&gt;to&lt;/span&gt;" style="text;whiteSpace=wrap;html=1;" parent="1" vertex="1">
                    <mxGeometry x="390" y="695" width="20" height="20" as="geometry"/>
                </mxCell>
                <mxCell id="65" value="" style="endArrow=none;html=1;rounded=0;exitX=0.5;exitY=1;exitDx=0;exitDy=0;entryX=0.5;entryY=0;entryDx=0;entryDy=0;" parent="1" source="45" target="46" edge="1">
                    <mxGeometry width="50" height="50" relative="1" as="geometry">
                        <mxPoint x="720" y="590" as="sourcePoint"/>
                        <mxPoint x="770" y="540" as="targetPoint"/>
                    </mxGeometry>
                </mxCell>
                <mxCell id="66" value="&lt;span style=&quot;color: rgb(0, 0, 0); font-family: Helvetica; font-size: 11px; font-style: normal; font-variant-ligatures: normal; font-variant-caps: normal; font-weight: 400; letter-spacing: normal; orphans: 2; text-align: center; text-indent: 0px; text-transform: none; widows: 2; word-spacing: 0px; -webkit-text-stroke-width: 0px; background-color: rgb(255, 255, 255); text-decoration-thickness: initial; text-decoration-style: initial; text-decoration-color: initial; float: none; display: inline !important;&quot;&gt;of&lt;/span&gt;" style="text;whiteSpace=wrap;html=1;" parent="1" vertex="1">
                    <mxGeometry x="460" y="750" width="20" height="30" as="geometry"/>
                </mxCell>
                <mxCell id="68" value="Equipment" style="html=1;" parent="1" vertex="1">
                    <mxGeometry x="410" y="560" width="80" height="40" as="geometry"/>
                </mxCell>
                <mxCell id="69" value="" style="endArrow=classic;html=1;rounded=0;exitX=0.75;exitY=1;exitDx=0;exitDy=0;entryX=0;entryY=0.5;entryDx=0;entryDy=0;" parent="1" source="2" target="68" edge="1">
                    <mxGeometry width="50" height="50" relative="1" as="geometry">
                        <mxPoint x="720" y="470" as="sourcePoint"/>
                        <mxPoint x="770" y="420" as="targetPoint"/>
                        <Array as="points">
                            <mxPoint x="375" y="580"/>
                        </Array>
                    </mxGeometry>
                </mxCell>
                <mxCell id="70" value="&lt;span style=&quot;color: rgb(0, 0, 0); font-family: Helvetica; font-size: 11px; font-style: normal; font-variant-ligatures: normal; font-variant-caps: normal; font-weight: 400; letter-spacing: normal; orphans: 2; text-align: center; text-indent: 0px; text-transform: none; widows: 2; word-spacing: 0px; -webkit-text-stroke-width: 0px; background-color: rgb(255, 255, 255); text-decoration-thickness: initial; text-decoration-style: initial; text-decoration-color: initial; float: none; display: inline !important;&quot;&gt;has&lt;/span&gt;" style="text;whiteSpace=wrap;html=1;" parent="1" vertex="1">
                    <mxGeometry x="380" y="530" width="30" height="30" as="geometry"/>
                </mxCell>
                <mxCell id="71" value="Equipment&lt;br&gt;Item" style="html=1;" parent="1" vertex="1">
                    <mxGeometry x="570" y="560" width="80" height="40" as="geometry"/>
                </mxCell>
                <mxCell id="72" value="" style="endArrow=classic;html=1;rounded=0;exitX=1;exitY=0.5;exitDx=0;exitDy=0;entryX=0;entryY=0.5;entryDx=0;entryDy=0;" parent="1" source="68" target="71" edge="1">
                    <mxGeometry width="50" height="50" relative="1" as="geometry">
                        <mxPoint x="720" y="590" as="sourcePoint"/>
                        <mxPoint x="770" y="540" as="targetPoint"/>
                    </mxGeometry>
                </mxCell>
                <mxCell id="73" value="&lt;span style=&quot;color: rgb(0, 0, 0); font-family: Helvetica; font-size: 11px; font-style: normal; font-variant-ligatures: normal; font-variant-caps: normal; font-weight: 400; letter-spacing: normal; orphans: 2; text-align: center; text-indent: 0px; text-transform: none; widows: 2; word-spacing: 0px; -webkit-text-stroke-width: 0px; background-color: rgb(255, 255, 255); text-decoration-thickness: initial; text-decoration-style: initial; text-decoration-color: initial; float: none; display: inline !important;&quot;&gt;contains&lt;/span&gt;" style="text;whiteSpace=wrap;html=1;" parent="1" vertex="1">
                    <mxGeometry x="510" y="560" width="40" height="30" as="geometry"/>
                </mxCell>
                <mxCell id="75" value="" style="endArrow=classic;html=1;rounded=0;exitX=1;exitY=0.5;exitDx=0;exitDy=0;entryX=0.5;entryY=1;entryDx=0;entryDy=0;" parent="1" source="71" target="3" edge="1">
                    <mxGeometry width="50" height="50" relative="1" as="geometry">
                        <mxPoint x="720" y="590" as="sourcePoint"/>
                        <mxPoint x="770" y="540" as="targetPoint"/>
                        <Array as="points">
                            <mxPoint x="820" y="580"/>
                        </Array>
                    </mxGeometry>
                </mxCell>
                <mxCell id="76" value="&lt;span style=&quot;color: rgb(0, 0, 0); font-family: Helvetica; font-size: 11px; font-style: normal; font-variant-ligatures: normal; font-variant-caps: normal; font-weight: 400; letter-spacing: normal; orphans: 2; text-align: center; text-indent: 0px; text-transform: none; widows: 2; word-spacing: 0px; -webkit-text-stroke-width: 0px; background-color: rgb(255, 255, 255); text-decoration-thickness: initial; text-decoration-style: initial; text-decoration-color: initial; float: none; display: inline !important;&quot;&gt;represents&lt;/span&gt;" style="text;whiteSpace=wrap;html=1;" parent="1" vertex="1">
                    <mxGeometry x="710" y="580" width="40" height="30" as="geometry"/>
                </mxCell>
                <mxCell id="77" value="" style="endArrow=classic;html=1;rounded=0;exitX=0.9;exitY=1.06;exitDx=0;exitDy=0;exitPerimeter=0;entryX=0;entryY=0.5;entryDx=0;entryDy=0;" parent="1" source="2" target="4" edge="1">
                    <mxGeometry width="50" height="50" relative="1" as="geometry">
                        <mxPoint x="720" y="590" as="sourcePoint"/>
                        <mxPoint x="770" y="540" as="targetPoint"/>
                        <Array as="points">
                            <mxPoint x="390" y="480"/>
                        </Array>
                    </mxGeometry>
                </mxCell>
                <mxCell id="78" value="&lt;span style=&quot;color: rgb(0, 0, 0); font-family: Helvetica; font-size: 11px; font-style: normal; font-variant-ligatures: normal; font-variant-caps: normal; font-weight: 400; letter-spacing: normal; orphans: 2; text-align: center; text-indent: 0px; text-transform: none; widows: 2; word-spacing: 0px; -webkit-text-stroke-width: 0px; background-color: rgb(255, 255, 255); text-decoration-thickness: initial; text-decoration-style: initial; text-decoration-color: initial; float: none; display: inline !important;&quot;&gt;makes / cancels / checks status&amp;nbsp;&lt;/span&gt;" style="text;whiteSpace=wrap;html=1;" parent="1" vertex="1">
                    <mxGeometry x="405" y="480" width="90" height="30" as="geometry"/>
                </mxCell>
                <mxCell id="79" value="Nomenclature" style="html=1;" parent="1" vertex="1">
                    <mxGeometry x="660" y="460" width="80" height="40" as="geometry"/>
                </mxCell>
                <mxCell id="80" value="" style="endArrow=classic;html=1;rounded=0;exitX=1;exitY=0.5;exitDx=0;exitDy=0;entryX=0;entryY=0.5;entryDx=0;entryDy=0;" parent="1" source="4" target="79" edge="1">
                    <mxGeometry width="50" height="50" relative="1" as="geometry">
                        <mxPoint x="720" y="590" as="sourcePoint"/>
                        <mxPoint x="770" y="540" as="targetPoint"/>
                    </mxGeometry>
                </mxCell>
                <mxCell id="81" value="&lt;span style=&quot;color: rgb(0, 0, 0); font-family: Helvetica; font-size: 11px; font-style: normal; font-variant-ligatures: normal; font-variant-caps: normal; font-weight: 400; letter-spacing: normal; orphans: 2; text-align: center; text-indent: 0px; text-transform: none; widows: 2; word-spacing: 0px; -webkit-text-stroke-width: 0px; background-color: rgb(255, 255, 255); text-decoration-thickness: initial; text-decoration-style: initial; text-decoration-color: initial; float: none; display: inline !important;&quot;&gt;formed from&lt;/span&gt;" style="text;whiteSpace=wrap;html=1;" parent="1" vertex="1">
                    <mxGeometry x="585" y="480" width="70" height="30" as="geometry"/>
                </mxCell>
                <mxCell id="83" value="" style="endArrow=classic;html=1;rounded=0;exitX=0.5;exitY=1;exitDx=0;exitDy=0;entryX=0;entryY=0.5;entryDx=0;entryDy=0;" parent="1" source="79" target="3" edge="1">
                    <mxGeometry width="50" height="50" relative="1" as="geometry">
                        <mxPoint x="720" y="590" as="sourcePoint"/>
                        <mxPoint x="770" y="540" as="targetPoint"/>
                        <Array as="points">
                            <mxPoint x="700" y="520"/>
                        </Array>
                    </mxGeometry>
                </mxCell>
                <mxCell id="84" value="&lt;span style=&quot;color: rgb(0, 0, 0); font-family: Helvetica; font-size: 11px; font-style: normal; font-variant-ligatures: normal; font-variant-caps: normal; font-weight: 400; letter-spacing: normal; orphans: 2; text-align: center; text-indent: 0px; text-transform: none; widows: 2; word-spacing: 0px; -webkit-text-stroke-width: 0px; background-color: rgb(255, 255, 255); text-decoration-thickness: initial; text-decoration-style: initial; text-decoration-color: initial; float: none; display: inline !important;&quot;&gt;has&lt;/span&gt;" style="text;whiteSpace=wrap;html=1;" parent="1" vertex="1">
                    <mxGeometry x="730" y="520" width="30" height="30" as="geometry"/>
                </mxCell>
                <mxCell id="85" value="Training&lt;br&gt;Hint" style="html=1;" parent="1" vertex="1">
                    <mxGeometry x="570" y="650" width="80" height="40" as="geometry"/>
                </mxCell>
                <mxCell id="86" value="" style="endArrow=classic;html=1;rounded=0;exitX=1;exitY=0.75;exitDx=0;exitDy=0;entryX=0;entryY=0.25;entryDx=0;entryDy=0;" parent="1" source="43" target="85" edge="1">
                    <mxGeometry width="50" height="50" relative="1" as="geometry">
                        <mxPoint x="500" y="650" as="sourcePoint"/>
                        <mxPoint x="580" y="650" as="targetPoint"/>
                    </mxGeometry>
                </mxCell>
                <mxCell id="87" value="Bonus" style="html=1;" parent="1" vertex="1">
                    <mxGeometry x="70" y="450" width="80" height="40" as="geometry"/>
                </mxCell>
                <mxCell id="88" value="Balance" style="html=1;" parent="1" vertex="1">
                    <mxGeometry x="150" y="385" width="80" height="40" as="geometry"/>
                </mxCell>
                <mxCell id="90" value="&lt;span style=&quot;color: rgb(0, 0, 0); font-family: Helvetica; font-size: 11px; font-style: normal; font-variant-ligatures: normal; font-variant-caps: normal; font-weight: 400; letter-spacing: normal; orphans: 2; text-align: center; text-indent: 0px; text-transform: none; widows: 2; word-spacing: 0px; -webkit-text-stroke-width: 0px; background-color: rgb(255, 255, 255); text-decoration-thickness: initial; text-decoration-style: initial; text-decoration-color: initial; float: none; display: inline !important;&quot;&gt;has&lt;/span&gt;" style="text;whiteSpace=wrap;html=1;" parent="1" vertex="1">
                    <mxGeometry x="260" y="380" width="30" height="30" as="geometry"/>
                </mxCell>
                <mxCell id="91" value="" style="endArrow=classic;html=1;exitX=0.5;exitY=0;exitDx=0;exitDy=0;entryX=0;entryY=0.5;entryDx=0;entryDy=0;rounded=0;" parent="1" source="87" target="88" edge="1">
                    <mxGeometry width="50" height="50" relative="1" as="geometry">
                        <mxPoint x="530" y="540" as="sourcePoint"/>
                        <mxPoint x="580" y="490" as="targetPoint"/>
                        <Array as="points">
                            <mxPoint x="110" y="405"/>
                        </Array>
                    </mxGeometry>
                </mxCell>
                <mxCell id="95" value="" style="endArrow=classic;html=1;rounded=0;exitX=0;exitY=0.5;exitDx=0;exitDy=0;entryX=1;entryY=0.5;entryDx=0;entryDy=0;" parent="1" source="2" target="88" edge="1">
                    <mxGeometry width="50" height="50" relative="1" as="geometry">
                        <mxPoint x="530" y="540" as="sourcePoint"/>
                        <mxPoint x="580" y="490" as="targetPoint"/>
                    </mxGeometry>
                </mxCell>
                <mxCell id="96" value="&lt;span style=&quot;color: rgb(0, 0, 0); font-family: Helvetica; font-size: 11px; font-style: normal; font-variant-ligatures: normal; font-variant-caps: normal; font-weight: 400; letter-spacing: normal; orphans: 2; text-align: center; text-indent: 0px; text-transform: none; widows: 2; word-spacing: 0px; -webkit-text-stroke-width: 0px; background-color: rgb(255, 255, 255); text-decoration-thickness: initial; text-decoration-style: initial; text-decoration-color: initial; float: none; display: inline !important;&quot;&gt;accrues&lt;br&gt;to&lt;br&gt;&lt;/span&gt;" style="text;whiteSpace=wrap;html=1;" parent="1" vertex="1">
                    <mxGeometry x="80" y="410" width="30" height="30" as="geometry"/>
                </mxCell>
                <mxCell id="97" value="" style="endArrow=classic;html=1;rounded=0;exitX=0.5;exitY=1;exitDx=0;exitDy=0;entryX=0;entryY=0.5;entryDx=0;entryDy=0;" parent="1" source="87" target="26" edge="1">
                    <mxGeometry width="50" height="50" relative="1" as="geometry">
                        <mxPoint x="530" y="540" as="sourcePoint"/>
                        <mxPoint x="130" y="530" as="targetPoint"/>
                        <Array as="points">
                            <mxPoint x="110" y="520"/>
                        </Array>
                    </mxGeometry>
                </mxCell>
                <mxCell id="98" value="&lt;span style=&quot;color: rgb(0, 0, 0); font-family: Helvetica; font-size: 11px; font-style: normal; font-variant-ligatures: normal; font-variant-caps: normal; font-weight: 400; letter-spacing: normal; orphans: 2; text-align: center; text-indent: 0px; text-transform: none; widows: 2; word-spacing: 0px; -webkit-text-stroke-width: 0px; background-color: rgb(255, 255, 255); text-decoration-thickness: initial; text-decoration-style: initial; text-decoration-color: initial; float: none; display: inline !important;&quot;&gt;depends on&lt;br&gt;&lt;/span&gt;" style="text;whiteSpace=wrap;html=1;" parent="1" vertex="1">
                    <mxGeometry x="150" y="520" width="60" height="30" as="geometry"/>
                </mxCell>
                <mxCell id="99" value="Tournament" style="html=1;" parent="1" vertex="1">
                    <mxGeometry x="600" y="400" width="80" height="40" as="geometry"/>
                </mxCell>
                <mxCell id="100" value="" style="endArrow=classic;html=1;rounded=0;exitX=1;exitY=0.75;exitDx=0;exitDy=0;" parent="1" source="2" edge="1">
                    <mxGeometry width="50" height="50" relative="1" as="geometry">
                        <mxPoint x="400" y="418" as="sourcePoint"/>
                        <mxPoint x="600" y="418" as="targetPoint"/>
                    </mxGeometry>
                </mxCell>
                <mxCell id="101" value="" style="endArrow=classic;html=1;rounded=0;" parent="1" edge="1">
                    <mxGeometry width="50" height="50" relative="1" as="geometry">
                        <mxPoint x="400" y="430" as="sourcePoint"/>
                        <mxPoint x="600" y="430" as="targetPoint"/>
                    </mxGeometry>
                </mxCell>
                <mxCell id="102" value="&lt;span style=&quot;color: rgb(0, 0, 0); font-family: Helvetica; font-size: 11px; font-style: normal; font-variant-ligatures: normal; font-variant-caps: normal; font-weight: 400; letter-spacing: normal; orphans: 2; text-align: center; text-indent: 0px; text-transform: none; widows: 2; word-spacing: 0px; -webkit-text-stroke-width: 0px; background-color: rgb(255, 255, 255); text-decoration-thickness: initial; text-decoration-style: initial; text-decoration-color: initial; float: none; display: inline !important;&quot;&gt;organizes&lt;/span&gt;" style="text;whiteSpace=wrap;html=1;" parent="1" vertex="1">
                    <mxGeometry x="510" y="390" width="50" height="30" as="geometry"/>
                </mxCell>
                <mxCell id="103" value="&lt;div style=&quot;text-align: center;&quot;&gt;&lt;span style=&quot;font-size: 11px; background-color: rgb(255, 255, 255);&quot;&gt;takes part in&lt;/span&gt;&lt;/div&gt;" style="text;whiteSpace=wrap;html=1;" parent="1" vertex="1">
                    <mxGeometry x="440" y="425" width="70" height="30" as="geometry"/>
                </mxCell>
                <mxCell id="104" value="Loyalty&lt;br&gt;Program" style="html=1;" parent="1" vertex="1">
                    <mxGeometry x="570" y="300" width="80" height="40" as="geometry"/>
                </mxCell>
                <mxCell id="105" value="News" style="html=1;" parent="1" vertex="1">
                    <mxGeometry x="130" y="280" width="80" height="40" as="geometry"/>
                </mxCell>
                <mxCell id="106" value="" style="endArrow=classic;startArrow=classic;html=1;exitX=1;exitY=0.25;exitDx=0;exitDy=0;entryX=0.613;entryY=1.05;entryDx=0;entryDy=0;entryPerimeter=0;rounded=0;" parent="1" source="2" target="6" edge="1">
                    <mxGeometry width="50" height="50" relative="1" as="geometry">
                        <mxPoint x="530" y="420" as="sourcePoint"/>
                        <mxPoint x="580" y="370" as="targetPoint"/>
                        <Array as="points">
                            <mxPoint x="470" y="393"/>
                        </Array>
                    </mxGeometry>
                </mxCell>
                <mxCell id="108" value="&lt;span style=&quot;color: rgb(0, 0, 0); font-family: Helvetica; font-size: 11px; font-style: normal; font-variant-ligatures: normal; font-variant-caps: normal; font-weight: 400; letter-spacing: normal; orphans: 2; text-align: center; text-indent: 0px; text-transform: none; widows: 2; word-spacing: 0px; -webkit-text-stroke-width: 0px; background-color: rgb(255, 255, 255); text-decoration-thickness: initial; text-decoration-style: initial; text-decoration-color: initial; float: none; display: inline !important;&quot;&gt;reads /&lt;br&gt;receives&lt;br&gt;&lt;/span&gt;" style="text;whiteSpace=wrap;html=1;" parent="1" vertex="1">
                    <mxGeometry x="200" y="330" width="40" height="30" as="geometry"/>
                </mxCell>
                <mxCell id="109" value="" style="endArrow=classic;startArrow=classic;html=1;rounded=0;exitX=1;exitY=0.5;exitDx=0;exitDy=0;entryX=0;entryY=0.25;entryDx=0;entryDy=0;" parent="1" source="105" target="2" edge="1">
                    <mxGeometry width="50" height="50" relative="1" as="geometry">
                        <mxPoint x="530" y="540" as="sourcePoint"/>
                        <mxPoint x="580" y="490" as="targetPoint"/>
                        <Array as="points">
                            <mxPoint x="250" y="340"/>
                        </Array>
                    </mxGeometry>
                </mxCell>
                <mxCell id="112" value="" style="endArrow=classic;html=1;rounded=0;exitX=1;exitY=0.5;exitDx=0;exitDy=0;entryX=0;entryY=0.5;entryDx=0;entryDy=0;" parent="1" source="2" target="104" edge="1">
                    <mxGeometry width="50" height="50" relative="1" as="geometry">
                        <mxPoint x="530" y="530" as="sourcePoint"/>
                        <mxPoint x="580" y="480" as="targetPoint"/>
                        <Array as="points">
                            <mxPoint x="490" y="405"/>
                            <mxPoint x="490" y="320"/>
                        </Array>
                    </mxGeometry>
                </mxCell>
                <mxCell id="113" value="&lt;span style=&quot;color: rgb(0, 0, 0); font-family: Helvetica; font-size: 11px; font-style: normal; font-variant-ligatures: normal; font-variant-caps: normal; font-weight: 400; letter-spacing: normal; orphans: 2; text-align: center; text-indent: 0px; text-transform: none; widows: 2; word-spacing: 0px; -webkit-text-stroke-width: 0px; background-color: rgb(255, 255, 255); text-decoration-thickness: initial; text-decoration-style: initial; text-decoration-color: initial; float: none; display: inline !important;&quot;&gt;participates&lt;/span&gt;" style="text;whiteSpace=wrap;html=1;" parent="1" vertex="1">
                    <mxGeometry x="500" y="320" width="50" height="30" as="geometry"/>
                </mxCell>
                <mxCell id="114" value="Trournament&lt;br&gt;Participant" style="html=1;" parent="1" vertex="1">
                    <mxGeometry x="720" y="400" width="80" height="40" as="geometry"/>
                </mxCell>
                <mxCell id="115" value="" style="endArrow=classic;html=1;exitX=1;exitY=0.5;exitDx=0;exitDy=0;entryX=0;entryY=0.5;entryDx=0;entryDy=0;" parent="1" source="99" target="114" edge="1">
                    <mxGeometry width="50" height="50" relative="1" as="geometry">
                        <mxPoint x="550" y="560" as="sourcePoint"/>
                        <mxPoint x="600" y="510" as="targetPoint"/>
                    </mxGeometry>
                </mxCell>
                <mxCell id="116" value="&lt;span style=&quot;color: rgb(0, 0, 0); font-family: Helvetica; font-size: 11px; font-style: normal; font-variant-ligatures: normal; font-variant-caps: normal; font-weight: 400; letter-spacing: normal; orphans: 2; text-align: center; text-indent: 0px; text-transform: none; widows: 2; word-spacing: 0px; -webkit-text-stroke-width: 0px; background-color: rgb(255, 255, 255); text-decoration-thickness: initial; text-decoration-style: initial; text-decoration-color: initial; float: none; display: inline !important;&quot;&gt;as&lt;/span&gt;" style="text;whiteSpace=wrap;html=1;" parent="1" vertex="1">
                    <mxGeometry x="690" y="420" width="30" height="30" as="geometry"/>
                </mxCell>
            </root>
        </mxGraphModel>
    </diagram>
</mxfile>